<svg width="25" height="26" viewBox="0 0 25 26" fill="none" xmlns="http://www.w3.org/2000/svg">
<g id="oui:arrow-up">
<path id="Vector" d="M7.8797 5.44391L15.0298 12.2336C15.1866 12.3817 15.2787 12.5857 15.286 12.8012C15.2932 13.0168 15.2152 13.2265 15.0688 13.3849L8.39533 20.6422C8.24902 20.8015 8.17114 21.0119 8.17845 21.2281C8.18576 21.4443 8.27769 21.6489 8.43443 21.798C8.51102 21.8714 8.60154 21.9288 8.70064 21.9667C8.79974 22.0046 8.90543 22.0223 9.01147 22.0187C9.11751 22.0151 9.22176 21.9903 9.31808 21.9458C9.41439 21.9013 9.50083 21.8379 9.57228 21.7595L16.2458 14.5037C16.6843 14.0259 16.9177 13.395 16.8957 12.7468C16.8738 12.0986 16.5983 11.4849 16.1285 11.0377L8.97995 4.24953C8.90333 4.17588 8.81271 4.11833 8.71346 4.0803C8.61422 4.04228 8.50835 4.02453 8.40213 4.02813C8.29591 4.03172 8.19149 4.05658 8.09504 4.10123C7.99859 4.14587 7.91207 4.20941 7.8406 4.28807C7.69429 4.44739 7.6164 4.6578 7.62372 4.87399C7.63103 5.09018 7.72296 5.29484 7.8797 5.44391Z" fill="white"/>
</g>
</svg>
